ffmpeg version 3.4.8-0ubuntu0.2 Copyright (c) 2000-2020 the FFmpeg developers
  built with gcc 7 (Ubuntu 7.5.0-3ubuntu1~18.04)
  configuration: --prefix=/usr --extra-version=0ubuntu0.2 --toolchain=hardened --libdir=/usr/lib/x86_64-linux-gnu --incdir=/usr/include/x86_64-linux-gnu --enable-gpl --disable-stripping --enable-avresample --enable-avisynth --enable-gnutls --enable-ladspa --enable-libass --enable-libbluray --enable-libbs2b --enable-libcaca --enable-libcdio --enable-libflite --enable-libfontconfig --enable-libfreetype --enable-libfribidi --enable-libgme --enable-libgsm --enable-libmp3lame --enable-libmysofa --enable-libopenjpeg --enable-libopenmpt --enable-libopus --enable-libpulse --enable-librubberband --enable-librsvg --enable-libshine --enable-libsnappy --enable-libsoxr --enable-libspeex --enable-libssh --enable-libtheora --enable-libtwolame --enable-libvorbis --enable-libvpx --enable-libwavpack --enable-libwebp --enable-libx265 --enable-libxml2 --enable-libxvid --enable-libzmq --enable-libzvbi --enable-omx --enable-openal --enable-opengl --enable-sdl2 --enable-libdc1394 --enable-libdrm --enable-libiec61883 --enable-chromaprint --enable-frei0r --enable-libopencv --enable-libx264 --enable-shared
  libavutil      55. 78.100 / 55. 78.100
  libavcodec     57.107.100 / 57.107.100
  libavformat    57. 83.100 / 57. 83.100
  libavdevice    57. 10.100 / 57. 10.100
  libavfilter     6.107.100 /  6.107.100
  libavresample   3.  7.  0 /  3.  7.  0
  libswscale      4.  8.100 /  4.  8.100
  libswresample   2.  9.100 /  2.  9.100
  libpostproc    54.  7.100 / 54.  7.100
[rawvideo @ 0x55b3632c1a20] Estimating duration from bitrate, this may be inaccurate
Input #0, rawvideo, from '../../SVC-Encoder-20220109T061506Z-001/SVC-Encoder/Dataset/RollerCoaster/6f_2x2/tile_yuv/f5_t1_480x480.yuv':
  Duration: 00:00:10.00, start: 0.000000, bitrate: 82944 kb/s
    Stream #0:0: Video: rawvideo (I420 / 0x30323449), yuv420p, 480x480, 82944 kb/s, 30 tbr, 30 tbn, 30 tbc
Stream mapping:
  Stream #0:0 -> #0:0 (rawvideo (native) -> h264 (libx264))
Press [q] to stop, [?] for help
[libx264 @ 0x55b3632cec60] using cpu capabilities: MMX2 SSE2Fast LZCNT SSSE3 SSE4.2 AVX
[libx264 @ 0x55b3632cec60] profile High, level 3.0
Output #0, rawvideo, to 'RollerCoaster_f5_t1_480x480_x264_QP_20.h264':
  Metadata:
    encoder         : Lavf57.83.100
    Stream #0:0: Video: h264 (libx264), yuv420p, 480x480, q=-1--1, 30 fps, 30 tbn, 30 tbc
    Metadata:
      encoder         : Lavc57.107.100 libx264
    Side data:
      cpb: bitrate max/min/avg: 0/0/0 buffer size: 0 vbv_delay: -1
frame=  114 fps=0.0 q=26.0 PSNR=Y:nan U:nan V:nan *:nan size=     217kB time=00:00:02.36 bitrate= 752.2kbits/s speed=4.73x    frame=  194 fps=194 q=26.0 PSNR=Y:nan U:nan V:nan *:nan size=     256kB time=00:00:05.03 bitrate= 416.7kbits/s speed=5.03x    frame=  271 fps=180 q=26.0 PSNR=Y:nan U:nan V:nan *:nan size=     512kB time=00:00:07.60 bitrate= 551.9kbits/s speed=5.06x    frame=  300 fps=159 q=26.0 LPSNR=Y:inf U:inf V:inf *:inf size=     724kB time=00:00:09.93 bitrate= 597.4kbits/s speed=5.26x    
video:724kB audio:0kB subtitle:0kB other streams:0kB global headers:0kB muxing overhead: 0.000000%
[libx264 @ 0x55b3632cec60] frame I:2     Avg QP:19.28  size: 26150  PSNR Mean Y:47.43 U:51.13 V:53.41 Avg:48.50 Global:48.28
[libx264 @ 0x55b3632cec60] frame P:77    Avg QP:19.98  size:  7089  PSNR Mean Y:45.82 U:50.64 V:52.48 Avg:47.02 Global:46.96
[libx264 @ 0x55b3632cec60] frame B:221   Avg QP:25.43  size:   650  PSNR Mean Y:44.69 U:50.51 V:52.44 Avg:46.01 Global:45.99
[libx264 @ 0x55b3632cec60] consecutive B-frames:  1.0%  2.0%  1.0% 96.0%
[libx264 @ 0x55b3632cec60] mb I  I16..4: 42.0% 49.6%  8.4%
[libx264 @ 0x55b3632cec60] mb P  I16..4:  3.0%  0.8%  0.2%  P16..4: 22.9% 18.6% 15.8%  0.0%  0.0%    skip:38.7%
[libx264 @ 0x55b3632cec60] mb B  I16..4:  0.0%  0.0%  0.0%  B16..8: 23.9%  5.5%  0.6%  direct: 0.4%  skip:69.7%  L0:34.6% L1:50.8% BI:14.7%
[libx264 @ 0x55b3632cec60] 8x8 transform intra:31.4% inter:58.6%
[libx264 @ 0x55b3632cec60] coded y,uvDC,uvAC intra: 30.3% 53.5% 15.2% inter: 11.1% 6.8% 0.1%
[libx264 @ 0x55b3632cec60] i16 v,h,dc,p: 44% 28% 13% 15%
[libx264 @ 0x55b3632cec60] i8 v,h,dc,ddl,ddr,vr,hd,vl,hu:  6% 15% 29% 10%  5%  3%  6%  6% 21%
[libx264 @ 0x55b3632cec60] i4 v,h,dc,ddl,ddr,vr,hd,vl,hu: 10% 18% 17% 15%  7%  7%  5%  7% 14%
[libx264 @ 0x55b3632cec60] i8c dc,h,v,p: 57% 24% 12%  7%
[libx264 @ 0x55b3632cec60] Weighted P-Frames: Y:1.3% UV:0.0%
[libx264 @ 0x55b3632cec60] ref P L0: 63.7% 19.2% 13.8%  3.2%  0.1%
[libx264 @ 0x55b3632cec60] ref B L0: 90.3%  8.4%  1.3%
[libx264 @ 0x55b3632cec60] ref B L1: 92.7%  7.3%
[libx264 @ 0x55b3632cec60] PSNR Mean Y:45.002 U:50.548 V:52.459 Avg:46.286 Global:46.229 kb/s:593.41
